<?xml version="1.0" encoding="UTF-8"?>
<!DOCTYPE svg PUBLIC "-//W3C//DTD SVG 1.1//EN" "http://www.w3.org/Graphics/SVG/1.1/DTD/svg11.dtd">
<!-- Creator: CorelDRAW 2021 (64-Bit) -->
<svg xmlns="http://www.w3.org/2000/svg" xml:space="preserve" width="11.6929in" height="8.26772in" version="1.1" style="shape-rendering:geometricPrecision; text-rendering:geometricPrecision; image-rendering:optimizeQuality; fill-rule:evenodd; clip-rule:evenodd"
viewBox="0 0 11692.91 8267.72"
 xmlns:xlink="http://www.w3.org/1999/xlink"
 xmlns:xodm="http://www.corel.com/coreldraw/odm/2003">
 <defs>
  <style type="text/css">
   <![CDATA[
    .fil1 {fill:#00A54F}
    .fil0 {fill:#01ADEE}
    .fil2 {fill:#A6CC39}
    .fil4 {fill:#EB008B}
    .fil3 {fill:#FFCA06}
   ]]>
  </style>
 </defs>
 <g id="Layer_x0020_1">
  <metadata id="CorelCorpID_0Corel-Layer"/>
  <g id="_2317830119376">
   <path class="fil0" d="M5160.17 5719.58c-40.87,27.06 -76.15,62.85 -130.16,90.77 -561.06,290 -1149.15,-263.13 -935.47,-819.73 41.72,-108.67 81.01,-217.8 122.91,-324.66 42.52,-108.45 82.41,-250.41 37.12,-374.94 -31.53,-86.7 -133.72,-199.37 -222.22,-216.6 -77.13,236.07 -255.78,624.4 -320.93,849.91 -98.25,340.09 -17.99,694.43 157.87,921.39 288.65,372.53 781.6,545.45 1245.61,348.39 106.01,-45.02 309.95,-165.55 344.71,-237.15 -26.23,-30.53 -272.76,-227.76 -299.45,-237.38z"/>
   <path class="fil1" d="M6831.31 2567.83c-6.31,49.37 78.27,307.03 94.35,372.33 264.17,-0.29 472.18,62.74 623.78,287.24 208.34,308.51 132.69,721.69 -197.18,940.19 -298.19,197.51 -693.06,361.41 -480.91,766.44l722.52 -466.72c585.2,-425.55 582.55,-1206.87 134.39,-1617.87 -255.57,-234.38 -529.91,-326 -896.95,-281.61z"/>
   <path class="fil2" d="M3736.46 4499.82c26.21,-67.98 120.79,-288.6 128.96,-351.52 -154.73,-98.85 -318.24,-267.14 -330.24,-538.65 -12.57,-284.47 133.97,-486.81 290.12,-588.62 396.13,-258.26 817.94,33.87 1108.52,-168.94 63.18,-44.1 153.19,-167.35 148.25,-284.29 -83.65,-8.2 -187.95,-10.65 -270.23,-13.82 -230.11,-8.87 -612.98,-46 -809.3,-11.23 -314.31,55.67 -545.1,249.59 -679.01,449.61 -245.53,366.75 -234.39,917.65 83.31,1266.92 49.63,54.56 230.05,233.94 329.63,240.55z"/>
   <path class="fil3" d="M7057.98 4967.31c2.87,31.82 15.62,53.82 25.67,86.96 143.7,474.19 -275.32,944.63 -768.22,842.43 -135.37,-28.06 -214.32,-81.54 -299.65,-148.41 -88.51,-69.37 -168.28,-124.81 -249.73,-198.07 -194.25,-174.72 -447.19,-224.81 -620.09,-16.34 27.54,37.2 593.09,485.23 646.3,529.18 208.24,172.01 567.09,288.34 926.79,193.08 306.39,-81.14 523.94,-284.94 655.1,-524.54 68.08,-124.37 118.11,-291.08 118.91,-471.48 0.96,-217.21 -42.9,-329.48 -109.39,-490.19 -60.69,4.11 -267.11,162.75 -325.68,197.36z"/>
   <path class="fil4" d="M4577.89 2415.87l382.93 18.87c72.96,-467.12 714.03,-725.93 1098.22,-354.71 191.13,184.68 193.28,324.9 278.04,625.75 72.44,257.11 170.06,445.83 499.31,397.03 -8.85,-61.87 -100.24,-377.22 -123.61,-465.2 -38.63,-145.4 -79.05,-330.33 -130.63,-458.67 -260.68,-648.66 -1042.13,-826.56 -1540.96,-488.87 -59.08,39.99 -116.79,85.43 -161.16,129.15 -139.17,137.14 -294.65,384.31 -302.14,596.66z"/>
   <path class="fil2" d="M4139.3 3217.04c-506.74,111.53 -307.33,806.26 128.22,708.83 104.31,-23.33 166.19,-71.77 217.77,-136.73 35.04,-44.12 47.13,-70.52 60.31,-121.59 69.41,-269.11 -168.83,-502.78 -406.3,-450.51z"/>
   <path class="fil0" d="M4671.31 4868.2c-189.94,29.59 -336.11,173.08 -315.57,399.89 16.78,185.31 191.78,337.34 406.21,314.76 182.33,-19.19 331.35,-189.74 309.06,-405.99 -18.19,-176.38 -194.77,-340.59 -399.7,-308.67z"/>
   <path class="fil1" d="M6930.59 3251.76c-198.07,48.63 -324.91,219.36 -281.88,428.34 35.22,170.99 209,318.4 426.47,276.34 168.98,-32.69 322.51,-205.43 279.36,-426.03 -32.95,-168.44 -208.07,-331.64 -423.95,-278.65z"/>
   <path class="fil4" d="M5554.63 2215.24c-488.86,89.4 -333.67,793 121.9,707.17 169.66,-31.96 326.7,-201.17 288.83,-416.27 -30.09,-170.93 -201.21,-329.21 -410.73,-290.9z"/>
   <path class="fil3" d="M6393.92 4891.66c-93.34,18.9 -169.93,50.1 -229.27,128.8 -204.93,271.8 24.52,630.13 338.43,579.55 180.81,-29.13 324.68,-187.06 299.34,-414.66 -18.13,-162.84 -206.28,-334.64 -408.5,-293.69z"/>
  </g>
 </g>
</svg>
